<mxfile host="app.diagrams.net" modified="2021-01-22T15:43:03.660Z" agent="5.0 (Windows)" etag="6bWvA2BbrIwdkVIJaLe8" version="14.2.6" type="github">
  <diagram id="DB7DYyGe6dCBV-LKf9_g" name="Page-1">
    <mxGraphModel dx="2062" dy="1124" grid="1" gridSize="10" guides="1" tooltips="1" connect="1" arrows="1" fold="1" page="1" pageScale="1" pageWidth="827" pageHeight="1169" math="0" shadow="0">
      <root>
        <mxCell id="0" />
        <mxCell id="1" parent="0" />
        <mxCell id="jmI8DxnPNjH-1lzKORgC-1" value="&lt;div&gt;Consommateur&lt;/div&gt;&lt;div&gt;de Service&lt;br&gt;&lt;/div&gt;" style="rounded=1;whiteSpace=wrap;html=1;" parent="1" vertex="1">
          <mxGeometry x="40" y="10" width="120" height="60" as="geometry" />
        </mxCell>
        <mxCell id="jmI8DxnPNjH-1lzKORgC-2" value="APIM" style="rounded=0;whiteSpace=wrap;html=1;" parent="1" vertex="1">
          <mxGeometry x="320" y="20" width="120" height="40" as="geometry" />
        </mxCell>
        <mxCell id="jmI8DxnPNjH-1lzKORgC-3" value="&lt;div&gt;Fournisseur&lt;/div&gt;&lt;div&gt;de Service&lt;br&gt;&lt;/div&gt;" style="rounded=1;whiteSpace=wrap;html=1;" parent="1" vertex="1">
          <mxGeometry x="630" y="10" width="120" height="60" as="geometry" />
        </mxCell>
        <mxCell id="jmI8DxnPNjH-1lzKORgC-4" value="" style="endArrow=classic;html=1;exitX=1;exitY=0.5;exitDx=0;exitDy=0;entryX=0;entryY=0.5;entryDx=0;entryDy=0;" parent="1" source="jmI8DxnPNjH-1lzKORgC-1" target="jmI8DxnPNjH-1lzKORgC-2" edge="1">
          <mxGeometry width="50" height="50" relative="1" as="geometry">
            <mxPoint x="200" y="90" as="sourcePoint" />
            <mxPoint x="250" y="40" as="targetPoint" />
          </mxGeometry>
        </mxCell>
        <mxCell id="jmI8DxnPNjH-1lzKORgC-5" value="" style="endArrow=classic;html=1;exitX=1;exitY=0.5;exitDx=0;exitDy=0;entryX=0;entryY=0.5;entryDx=0;entryDy=0;" parent="1" source="jmI8DxnPNjH-1lzKORgC-2" target="jmI8DxnPNjH-1lzKORgC-3" edge="1">
          <mxGeometry width="50" height="50" relative="1" as="geometry">
            <mxPoint x="450" y="90" as="sourcePoint" />
            <mxPoint x="610" y="90" as="targetPoint" />
          </mxGeometry>
        </mxCell>
        <mxCell id="Vw3KiEQnQfza69MFVmrH-13" value="" style="shape=image;html=1;verticalAlign=top;verticalLabelPosition=bottom;labelBackgroundColor=#ffffff;imageAspect=0;aspect=fixed;image=https://cdn3.iconfinder.com/data/icons/file-set-volume-1/512/Artboard_9-128.png" parent="1" vertex="1">
          <mxGeometry x="210" y="40" width="48" height="48" as="geometry" />
        </mxCell>
        <mxCell id="Vw3KiEQnQfza69MFVmrH-14" value="" style="shape=image;html=1;verticalAlign=top;verticalLabelPosition=bottom;labelBackgroundColor=#ffffff;imageAspect=0;aspect=fixed;image=https://cdn3.iconfinder.com/data/icons/file-set-volume-1/512/Artboard_9-128.png" parent="1" vertex="1">
          <mxGeometry x="520" y="40" width="48" height="48" as="geometry" />
        </mxCell>
        <mxCell id="fmMvQ1CZ4i4TI4SBkcEm-5" value="HORS PROD" style="swimlane;html=1;childLayout=stackLayout;resizeParent=1;resizeParentMax=0;horizontal=0;startSize=20;horizontalStack=0;" parent="1" vertex="1">
          <mxGeometry x="30" y="100" width="720" height="350" as="geometry" />
        </mxCell>
        <mxCell id="fmMvQ1CZ4i4TI4SBkcEm-6" value="INTEG" style="swimlane;html=1;startSize=20;horizontal=0;" parent="fmMvQ1CZ4i4TI4SBkcEm-5" vertex="1">
          <mxGeometry x="20" width="700" height="110" as="geometry" />
        </mxCell>
        <mxCell id="fmMvQ1CZ4i4TI4SBkcEm-7" value="&lt;div&gt;Consommateur API&lt;br&gt;&lt;/div&gt;" style="rounded=1;whiteSpace=wrap;html=1;" parent="fmMvQ1CZ4i4TI4SBkcEm-6" vertex="1">
          <mxGeometry x="60" y="45" width="120" height="30" as="geometry" />
        </mxCell>
        <mxCell id="fmMvQ1CZ4i4TI4SBkcEm-8" value="APIM" style="rounded=0;whiteSpace=wrap;html=1;" parent="fmMvQ1CZ4i4TI4SBkcEm-6" vertex="1">
          <mxGeometry x="286" y="37.5" width="120" height="45" as="geometry" />
        </mxCell>
        <mxCell id="fmMvQ1CZ4i4TI4SBkcEm-9" value="API 1" style="rounded=1;whiteSpace=wrap;html=1;" parent="fmMvQ1CZ4i4TI4SBkcEm-6" vertex="1">
          <mxGeometry x="538" y="40" width="120" height="20" as="geometry" />
        </mxCell>
        <mxCell id="fmMvQ1CZ4i4TI4SBkcEm-10" value="" style="endArrow=classic;html=1;entryX=0;entryY=0.25;entryDx=0;entryDy=0;" parent="fmMvQ1CZ4i4TI4SBkcEm-6" target="fmMvQ1CZ4i4TI4SBkcEm-8" edge="1">
          <mxGeometry width="50" height="50" relative="1" as="geometry">
            <mxPoint x="180" y="49" as="sourcePoint" />
            <mxPoint x="220" y="70" as="targetPoint" />
          </mxGeometry>
        </mxCell>
        <mxCell id="xK6oUCsUX61FPenwn8ox-5" value="/api1" style="edgeLabel;html=1;align=center;verticalAlign=middle;resizable=0;points=[];" vertex="1" connectable="0" parent="fmMvQ1CZ4i4TI4SBkcEm-10">
          <mxGeometry x="0.2364" y="2" relative="1" as="geometry">
            <mxPoint as="offset" />
          </mxGeometry>
        </mxCell>
        <mxCell id="fmMvQ1CZ4i4TI4SBkcEm-11" value="" style="endArrow=classic;html=1;entryX=0;entryY=0.5;entryDx=0;entryDy=0;exitX=1;exitY=0.25;exitDx=0;exitDy=0;" parent="fmMvQ1CZ4i4TI4SBkcEm-6" source="fmMvQ1CZ4i4TI4SBkcEm-8" target="fmMvQ1CZ4i4TI4SBkcEm-9" edge="1">
          <mxGeometry width="50" height="50" relative="1" as="geometry">
            <mxPoint x="410" y="60" as="sourcePoint" />
            <mxPoint x="580" y="120" as="targetPoint" />
          </mxGeometry>
        </mxCell>
        <mxCell id="xK6oUCsUX61FPenwn8ox-6" value="/api1" style="edgeLabel;html=1;align=center;verticalAlign=middle;resizable=0;points=[];" vertex="1" connectable="0" parent="fmMvQ1CZ4i4TI4SBkcEm-11">
          <mxGeometry x="0.4375" y="1" relative="1" as="geometry">
            <mxPoint as="offset" />
          </mxGeometry>
        </mxCell>
        <mxCell id="xK6oUCsUX61FPenwn8ox-8" value="" style="endArrow=classic;html=1;entryX=0;entryY=0.5;entryDx=0;entryDy=0;exitX=1;exitY=0.5;exitDx=0;exitDy=0;" edge="1" parent="fmMvQ1CZ4i4TI4SBkcEm-6" source="fmMvQ1CZ4i4TI4SBkcEm-7" target="fmMvQ1CZ4i4TI4SBkcEm-8">
          <mxGeometry width="50" height="50" relative="1" as="geometry">
            <mxPoint x="180" y="55" as="sourcePoint" />
            <mxPoint x="290" y="55" as="targetPoint" />
          </mxGeometry>
        </mxCell>
        <mxCell id="xK6oUCsUX61FPenwn8ox-9" value="/api2" style="edgeLabel;html=1;align=center;verticalAlign=middle;resizable=0;points=[];" vertex="1" connectable="0" parent="xK6oUCsUX61FPenwn8ox-8">
          <mxGeometry x="0.2364" y="2" relative="1" as="geometry">
            <mxPoint as="offset" />
          </mxGeometry>
        </mxCell>
        <mxCell id="xK6oUCsUX61FPenwn8ox-10" value="" style="endArrow=classic;html=1;entryX=0;entryY=0.75;entryDx=0;entryDy=0;" edge="1" parent="fmMvQ1CZ4i4TI4SBkcEm-6" target="fmMvQ1CZ4i4TI4SBkcEm-8">
          <mxGeometry width="50" height="50" relative="1" as="geometry">
            <mxPoint x="180" y="71" as="sourcePoint" />
            <mxPoint x="286" y="90" as="targetPoint" />
          </mxGeometry>
        </mxCell>
        <mxCell id="xK6oUCsUX61FPenwn8ox-11" value="/api3" style="edgeLabel;html=1;align=center;verticalAlign=middle;resizable=0;points=[];" vertex="1" connectable="0" parent="xK6oUCsUX61FPenwn8ox-10">
          <mxGeometry x="0.2364" y="2" relative="1" as="geometry">
            <mxPoint as="offset" />
          </mxGeometry>
        </mxCell>
        <mxCell id="fmMvQ1CZ4i4TI4SBkcEm-13" value="QUALIF" style="swimlane;html=1;startSize=20;horizontal=0;" parent="fmMvQ1CZ4i4TI4SBkcEm-5" vertex="1">
          <mxGeometry x="20" y="110" width="700" height="110" as="geometry" />
        </mxCell>
        <mxCell id="fmMvQ1CZ4i4TI4SBkcEm-15" value="API 1" style="rounded=1;whiteSpace=wrap;html=1;" parent="fmMvQ1CZ4i4TI4SBkcEm-13" vertex="1">
          <mxGeometry x="538" y="19.5" width="120" height="20" as="geometry" />
        </mxCell>
        <mxCell id="fmMvQ1CZ4i4TI4SBkcEm-16" value="" style="endArrow=classic;html=1;exitX=1;exitY=0.25;exitDx=0;exitDy=0;entryX=0;entryY=0.5;entryDx=0;entryDy=0;rounded=1;edgeStyle=orthogonalEdgeStyle;" parent="fmMvQ1CZ4i4TI4SBkcEm-13" source="xK6oUCsUX61FPenwn8ox-14" target="fmMvQ1CZ4i4TI4SBkcEm-15" edge="1">
          <mxGeometry width="50" height="50" relative="1" as="geometry">
            <mxPoint x="410" y="40" as="sourcePoint" />
            <mxPoint x="540" y="-280" as="targetPoint" />
            <Array as="points">
              <mxPoint x="466" y="41" />
              <mxPoint x="466" y="30" />
            </Array>
          </mxGeometry>
        </mxCell>
        <mxCell id="xK6oUCsUX61FPenwn8ox-29" value="/api1" style="edgeLabel;html=1;align=center;verticalAlign=middle;resizable=0;points=[];" vertex="1" connectable="0" parent="fmMvQ1CZ4i4TI4SBkcEm-16">
          <mxGeometry x="-0.388" relative="1" as="geometry">
            <mxPoint as="offset" />
          </mxGeometry>
        </mxCell>
        <mxCell id="fmMvQ1CZ4i4TI4SBkcEm-17" value="API 2" style="rounded=1;whiteSpace=wrap;html=1;" parent="fmMvQ1CZ4i4TI4SBkcEm-13" vertex="1">
          <mxGeometry x="538" y="55" width="120" height="20" as="geometry" />
        </mxCell>
        <mxCell id="xK6oUCsUX61FPenwn8ox-2" value="" style="endArrow=classic;html=1;exitX=1;exitY=0.5;exitDx=0;exitDy=0;entryX=0;entryY=0.75;entryDx=0;entryDy=0;rounded=1;edgeStyle=orthogonalEdgeStyle;" edge="1" parent="fmMvQ1CZ4i4TI4SBkcEm-13" source="xK6oUCsUX61FPenwn8ox-14" target="fmMvQ1CZ4i4TI4SBkcEm-17">
          <mxGeometry width="50" height="50" relative="1" as="geometry">
            <mxPoint x="410" y="50" as="sourcePoint" />
            <mxPoint x="538" y="29.5" as="targetPoint" />
            <Array as="points">
              <mxPoint x="466" y="53" />
              <mxPoint x="466" y="70" />
            </Array>
          </mxGeometry>
        </mxCell>
        <mxCell id="xK6oUCsUX61FPenwn8ox-30" value="/api2" style="edgeLabel;html=1;align=center;verticalAlign=middle;resizable=0;points=[];" vertex="1" connectable="0" parent="xK6oUCsUX61FPenwn8ox-2">
          <mxGeometry x="0.3311" y="-3" relative="1" as="geometry">
            <mxPoint x="-41.5" y="-8" as="offset" />
          </mxGeometry>
        </mxCell>
        <mxCell id="xK6oUCsUX61FPenwn8ox-13" value="&lt;div&gt;Consommateur API&lt;br&gt;&lt;/div&gt;" style="rounded=1;whiteSpace=wrap;html=1;" vertex="1" parent="fmMvQ1CZ4i4TI4SBkcEm-13">
          <mxGeometry x="60" y="37.5" width="120" height="30" as="geometry" />
        </mxCell>
        <mxCell id="xK6oUCsUX61FPenwn8ox-14" value="APIM" style="rounded=0;whiteSpace=wrap;html=1;" vertex="1" parent="fmMvQ1CZ4i4TI4SBkcEm-13">
          <mxGeometry x="286" y="30" width="120" height="45" as="geometry" />
        </mxCell>
        <mxCell id="xK6oUCsUX61FPenwn8ox-15" value="" style="endArrow=classic;html=1;entryX=0;entryY=0.25;entryDx=0;entryDy=0;" edge="1" parent="fmMvQ1CZ4i4TI4SBkcEm-13" target="xK6oUCsUX61FPenwn8ox-14">
          <mxGeometry width="50" height="50" relative="1" as="geometry">
            <mxPoint x="180" y="41.5" as="sourcePoint" />
            <mxPoint x="176" y="-157.5" as="targetPoint" />
          </mxGeometry>
        </mxCell>
        <mxCell id="xK6oUCsUX61FPenwn8ox-16" value="/api1" style="edgeLabel;html=1;align=center;verticalAlign=middle;resizable=0;points=[];" vertex="1" connectable="0" parent="xK6oUCsUX61FPenwn8ox-15">
          <mxGeometry x="0.2364" y="2" relative="1" as="geometry">
            <mxPoint as="offset" />
          </mxGeometry>
        </mxCell>
        <mxCell id="xK6oUCsUX61FPenwn8ox-17" value="" style="endArrow=classic;html=1;entryX=0;entryY=0.5;entryDx=0;entryDy=0;exitX=1;exitY=0.5;exitDx=0;exitDy=0;" edge="1" parent="fmMvQ1CZ4i4TI4SBkcEm-13" source="xK6oUCsUX61FPenwn8ox-13" target="xK6oUCsUX61FPenwn8ox-14">
          <mxGeometry width="50" height="50" relative="1" as="geometry">
            <mxPoint x="136" y="-172.5" as="sourcePoint" />
            <mxPoint x="246" y="-172.5" as="targetPoint" />
          </mxGeometry>
        </mxCell>
        <mxCell id="xK6oUCsUX61FPenwn8ox-18" value="/api2" style="edgeLabel;html=1;align=center;verticalAlign=middle;resizable=0;points=[];" vertex="1" connectable="0" parent="xK6oUCsUX61FPenwn8ox-17">
          <mxGeometry x="0.2364" y="2" relative="1" as="geometry">
            <mxPoint as="offset" />
          </mxGeometry>
        </mxCell>
        <mxCell id="xK6oUCsUX61FPenwn8ox-19" value="" style="endArrow=classic;html=1;entryX=0;entryY=0.75;entryDx=0;entryDy=0;" edge="1" parent="fmMvQ1CZ4i4TI4SBkcEm-13" target="xK6oUCsUX61FPenwn8ox-14">
          <mxGeometry width="50" height="50" relative="1" as="geometry">
            <mxPoint x="180" y="63.5" as="sourcePoint" />
            <mxPoint x="242" y="-137.5" as="targetPoint" />
          </mxGeometry>
        </mxCell>
        <mxCell id="xK6oUCsUX61FPenwn8ox-20" value="/api3" style="edgeLabel;html=1;align=center;verticalAlign=middle;resizable=0;points=[];" vertex="1" connectable="0" parent="xK6oUCsUX61FPenwn8ox-19">
          <mxGeometry x="0.2364" y="2" relative="1" as="geometry">
            <mxPoint as="offset" />
          </mxGeometry>
        </mxCell>
        <mxCell id="fmMvQ1CZ4i4TI4SBkcEm-21" value="RECETTE" style="swimlane;html=1;startSize=20;horizontal=0;" parent="fmMvQ1CZ4i4TI4SBkcEm-5" vertex="1">
          <mxGeometry x="20" y="220" width="700" height="130" as="geometry" />
        </mxCell>
        <mxCell id="fmMvQ1CZ4i4TI4SBkcEm-22" value="API 1" style="rounded=1;whiteSpace=wrap;html=1;" parent="fmMvQ1CZ4i4TI4SBkcEm-21" vertex="1">
          <mxGeometry x="540" y="24.5" width="120" height="20" as="geometry" />
        </mxCell>
        <mxCell id="fmMvQ1CZ4i4TI4SBkcEm-23" value="API 2" style="rounded=1;whiteSpace=wrap;html=1;" parent="fmMvQ1CZ4i4TI4SBkcEm-21" vertex="1">
          <mxGeometry x="540" y="54.5" width="120" height="20" as="geometry" />
        </mxCell>
        <mxCell id="fmMvQ1CZ4i4TI4SBkcEm-24" value="API 3" style="rounded=1;whiteSpace=wrap;html=1;" parent="fmMvQ1CZ4i4TI4SBkcEm-21" vertex="1">
          <mxGeometry x="540" y="85.5" width="120" height="20" as="geometry" />
        </mxCell>
        <mxCell id="fmMvQ1CZ4i4TI4SBkcEm-27" value="" style="endArrow=classic;html=1;exitX=1;exitY=0.25;exitDx=0;exitDy=0;entryX=0;entryY=0.5;entryDx=0;entryDy=0;rounded=1;edgeStyle=orthogonalEdgeStyle;" parent="fmMvQ1CZ4i4TI4SBkcEm-21" source="xK6oUCsUX61FPenwn8ox-22" target="fmMvQ1CZ4i4TI4SBkcEm-22" edge="1">
          <mxGeometry width="50" height="50" relative="1" as="geometry">
            <mxPoint x="410" y="70" as="sourcePoint" />
            <mxPoint x="548" y="116" as="targetPoint" />
            <Array as="points">
              <mxPoint x="466" y="52" />
              <mxPoint x="466" y="35" />
            </Array>
          </mxGeometry>
        </mxCell>
        <mxCell id="xK6oUCsUX61FPenwn8ox-31" value="/api1" style="edgeLabel;html=1;align=center;verticalAlign=middle;resizable=0;points=[];" vertex="1" connectable="0" parent="fmMvQ1CZ4i4TI4SBkcEm-27">
          <mxGeometry x="-0.2015" relative="1" as="geometry">
            <mxPoint x="-28" y="2.7" as="offset" />
          </mxGeometry>
        </mxCell>
        <mxCell id="fmMvQ1CZ4i4TI4SBkcEm-31" value="" style="endArrow=classic;html=1;exitX=1;exitY=0.5;exitDx=0;exitDy=0;entryX=0;entryY=0.5;entryDx=0;entryDy=0;rounded=1;edgeStyle=orthogonalEdgeStyle;" parent="fmMvQ1CZ4i4TI4SBkcEm-21" source="xK6oUCsUX61FPenwn8ox-22" target="fmMvQ1CZ4i4TI4SBkcEm-23" edge="1">
          <mxGeometry width="50" height="50" relative="1" as="geometry">
            <mxPoint x="410" y="75.5" as="sourcePoint" />
            <mxPoint x="540" y="34.5" as="targetPoint" />
            <Array as="points">
              <mxPoint x="402" y="65" />
              <mxPoint x="496" y="65" />
            </Array>
          </mxGeometry>
        </mxCell>
        <mxCell id="xK6oUCsUX61FPenwn8ox-32" value="/api2" style="edgeLabel;html=1;align=center;verticalAlign=middle;resizable=0;points=[];" vertex="1" connectable="0" parent="fmMvQ1CZ4i4TI4SBkcEm-31">
          <mxGeometry x="0.5" relative="1" as="geometry">
            <mxPoint x="-39" y="0.1" as="offset" />
          </mxGeometry>
        </mxCell>
        <mxCell id="xK6oUCsUX61FPenwn8ox-3" value="" style="endArrow=classic;html=1;exitX=1;exitY=0.75;exitDx=0;exitDy=0;entryX=0;entryY=0.75;entryDx=0;entryDy=0;rounded=1;edgeStyle=orthogonalEdgeStyle;" edge="1" parent="fmMvQ1CZ4i4TI4SBkcEm-21" source="xK6oUCsUX61FPenwn8ox-22" target="fmMvQ1CZ4i4TI4SBkcEm-24">
          <mxGeometry width="50" height="50" relative="1" as="geometry">
            <mxPoint x="410" y="80.5" as="sourcePoint" />
            <mxPoint x="546" y="90" as="targetPoint" />
            <Array as="points">
              <mxPoint x="446" y="74" />
              <mxPoint x="446" y="101" />
            </Array>
          </mxGeometry>
        </mxCell>
        <mxCell id="xK6oUCsUX61FPenwn8ox-33" value="/api3" style="edgeLabel;html=1;align=center;verticalAlign=middle;resizable=0;points=[];" vertex="1" connectable="0" parent="xK6oUCsUX61FPenwn8ox-3">
          <mxGeometry x="-0.0743" y="-2" relative="1" as="geometry">
            <mxPoint as="offset" />
          </mxGeometry>
        </mxCell>
        <mxCell id="xK6oUCsUX61FPenwn8ox-21" value="&lt;div&gt;Consommateur API&lt;br&gt;&lt;/div&gt;" style="rounded=1;whiteSpace=wrap;html=1;" vertex="1" parent="fmMvQ1CZ4i4TI4SBkcEm-21">
          <mxGeometry x="56" y="48" width="120" height="30" as="geometry" />
        </mxCell>
        <mxCell id="xK6oUCsUX61FPenwn8ox-22" value="APIM" style="rounded=0;whiteSpace=wrap;html=1;" vertex="1" parent="fmMvQ1CZ4i4TI4SBkcEm-21">
          <mxGeometry x="282" y="40.5" width="120" height="45" as="geometry" />
        </mxCell>
        <mxCell id="xK6oUCsUX61FPenwn8ox-23" value="" style="endArrow=classic;html=1;entryX=0;entryY=0.25;entryDx=0;entryDy=0;" edge="1" parent="fmMvQ1CZ4i4TI4SBkcEm-21" target="xK6oUCsUX61FPenwn8ox-22">
          <mxGeometry width="50" height="50" relative="1" as="geometry">
            <mxPoint x="176" y="52" as="sourcePoint" />
            <mxPoint x="172" y="-147" as="targetPoint" />
          </mxGeometry>
        </mxCell>
        <mxCell id="xK6oUCsUX61FPenwn8ox-24" value="/api1" style="edgeLabel;html=1;align=center;verticalAlign=middle;resizable=0;points=[];" vertex="1" connectable="0" parent="xK6oUCsUX61FPenwn8ox-23">
          <mxGeometry x="0.2364" y="2" relative="1" as="geometry">
            <mxPoint as="offset" />
          </mxGeometry>
        </mxCell>
        <mxCell id="xK6oUCsUX61FPenwn8ox-25" value="" style="endArrow=classic;html=1;entryX=0;entryY=0.5;entryDx=0;entryDy=0;exitX=1;exitY=0.5;exitDx=0;exitDy=0;" edge="1" parent="fmMvQ1CZ4i4TI4SBkcEm-21" source="xK6oUCsUX61FPenwn8ox-21" target="xK6oUCsUX61FPenwn8ox-22">
          <mxGeometry width="50" height="50" relative="1" as="geometry">
            <mxPoint x="132" y="-162" as="sourcePoint" />
            <mxPoint x="242" y="-162" as="targetPoint" />
          </mxGeometry>
        </mxCell>
        <mxCell id="xK6oUCsUX61FPenwn8ox-26" value="/api2" style="edgeLabel;html=1;align=center;verticalAlign=middle;resizable=0;points=[];" vertex="1" connectable="0" parent="xK6oUCsUX61FPenwn8ox-25">
          <mxGeometry x="0.2364" y="2" relative="1" as="geometry">
            <mxPoint as="offset" />
          </mxGeometry>
        </mxCell>
        <mxCell id="xK6oUCsUX61FPenwn8ox-27" value="" style="endArrow=classic;html=1;entryX=0;entryY=0.75;entryDx=0;entryDy=0;" edge="1" parent="fmMvQ1CZ4i4TI4SBkcEm-21" target="xK6oUCsUX61FPenwn8ox-22">
          <mxGeometry width="50" height="50" relative="1" as="geometry">
            <mxPoint x="176" y="74" as="sourcePoint" />
            <mxPoint x="238" y="-127" as="targetPoint" />
          </mxGeometry>
        </mxCell>
        <mxCell id="xK6oUCsUX61FPenwn8ox-28" value="/api3" style="edgeLabel;html=1;align=center;verticalAlign=middle;resizable=0;points=[];" vertex="1" connectable="0" parent="xK6oUCsUX61FPenwn8ox-27">
          <mxGeometry x="0.2364" y="2" relative="1" as="geometry">
            <mxPoint as="offset" />
          </mxGeometry>
        </mxCell>
        <mxCell id="xK6oUCsUX61FPenwn8ox-4" value="" style="endArrow=classic;html=1;exitX=1;exitY=0.5;exitDx=0;exitDy=0;entryX=0;entryY=0.5;entryDx=0;entryDy=0;edgeStyle=orthogonalEdgeStyle;strokeWidth=2;fillColor=#f8cecc;strokeColor=#b85450;" edge="1" parent="fmMvQ1CZ4i4TI4SBkcEm-5" source="fmMvQ1CZ4i4TI4SBkcEm-8" target="fmMvQ1CZ4i4TI4SBkcEm-17">
          <mxGeometry width="50" height="50" relative="1" as="geometry">
            <mxPoint x="456" y="120" as="sourcePoint" />
            <mxPoint x="506" y="70" as="targetPoint" />
            <Array as="points">
              <mxPoint x="516" y="60" />
              <mxPoint x="516" y="175" />
            </Array>
          </mxGeometry>
        </mxCell>
        <mxCell id="xK6oUCsUX61FPenwn8ox-12" value="/api2" style="edgeLabel;html=1;align=center;verticalAlign=middle;resizable=0;points=[];" vertex="1" connectable="0" parent="xK6oUCsUX61FPenwn8ox-4">
          <mxGeometry x="-0.5466" relative="1" as="geometry">
            <mxPoint as="offset" />
          </mxGeometry>
        </mxCell>
        <mxCell id="xK6oUCsUX61FPenwn8ox-34" value="" style="endArrow=classic;html=1;exitX=1;exitY=0.75;exitDx=0;exitDy=0;entryX=0;entryY=0.5;entryDx=0;entryDy=0;edgeStyle=orthogonalEdgeStyle;fillColor=#f8cecc;strokeColor=#b85450;strokeWidth=2;" edge="1" parent="fmMvQ1CZ4i4TI4SBkcEm-5" source="fmMvQ1CZ4i4TI4SBkcEm-8" target="fmMvQ1CZ4i4TI4SBkcEm-24">
          <mxGeometry width="50" height="50" relative="1" as="geometry">
            <mxPoint x="436" y="460" as="sourcePoint" />
            <mxPoint x="486" y="410" as="targetPoint" />
            <Array as="points">
              <mxPoint x="506" y="71" />
              <mxPoint x="506" y="316" />
            </Array>
          </mxGeometry>
        </mxCell>
        <mxCell id="xK6oUCsUX61FPenwn8ox-35" value="/api3" style="edgeLabel;html=1;align=center;verticalAlign=middle;resizable=0;points=[];" vertex="1" connectable="0" parent="xK6oUCsUX61FPenwn8ox-34">
          <mxGeometry x="-0.7303" y="-2" relative="1" as="geometry">
            <mxPoint as="offset" />
          </mxGeometry>
        </mxCell>
        <mxCell id="xK6oUCsUX61FPenwn8ox-86" value="HORS PROD" style="swimlane;html=1;childLayout=stackLayout;resizeParent=1;resizeParentMax=0;horizontal=0;startSize=20;horizontalStack=0;" vertex="1" parent="1">
          <mxGeometry x="30" y="480" width="720" height="350" as="geometry" />
        </mxCell>
        <mxCell id="xK6oUCsUX61FPenwn8ox-87" value="INTEG" style="swimlane;html=1;startSize=20;horizontal=0;" vertex="1" parent="xK6oUCsUX61FPenwn8ox-86">
          <mxGeometry x="20" width="700" height="110" as="geometry" />
        </mxCell>
        <mxCell id="xK6oUCsUX61FPenwn8ox-88" value="&lt;div&gt;Consommateur API&lt;br&gt;&lt;/div&gt;" style="rounded=1;whiteSpace=wrap;html=1;" vertex="1" parent="xK6oUCsUX61FPenwn8ox-87">
          <mxGeometry x="60" y="45" width="120" height="30" as="geometry" />
        </mxCell>
        <mxCell id="xK6oUCsUX61FPenwn8ox-89" value="APIM" style="rounded=0;whiteSpace=wrap;html=1;" vertex="1" parent="xK6oUCsUX61FPenwn8ox-87">
          <mxGeometry x="286" y="37.5" width="120" height="45" as="geometry" />
        </mxCell>
        <mxCell id="xK6oUCsUX61FPenwn8ox-90" value="API 1" style="rounded=1;whiteSpace=wrap;html=1;" vertex="1" parent="xK6oUCsUX61FPenwn8ox-87">
          <mxGeometry x="538" y="40" width="120" height="20" as="geometry" />
        </mxCell>
        <mxCell id="xK6oUCsUX61FPenwn8ox-91" value="" style="endArrow=classic;html=1;entryX=0;entryY=0.25;entryDx=0;entryDy=0;" edge="1" parent="xK6oUCsUX61FPenwn8ox-87" target="xK6oUCsUX61FPenwn8ox-89">
          <mxGeometry width="50" height="50" relative="1" as="geometry">
            <mxPoint x="180" y="49" as="sourcePoint" />
            <mxPoint x="220" y="70" as="targetPoint" />
          </mxGeometry>
        </mxCell>
        <mxCell id="xK6oUCsUX61FPenwn8ox-92" value="/api1" style="edgeLabel;html=1;align=center;verticalAlign=middle;resizable=0;points=[];" vertex="1" connectable="0" parent="xK6oUCsUX61FPenwn8ox-91">
          <mxGeometry x="0.2364" y="2" relative="1" as="geometry">
            <mxPoint as="offset" />
          </mxGeometry>
        </mxCell>
        <mxCell id="xK6oUCsUX61FPenwn8ox-93" value="" style="endArrow=classic;html=1;entryX=0;entryY=0.5;entryDx=0;entryDy=0;exitX=1;exitY=0.25;exitDx=0;exitDy=0;" edge="1" parent="xK6oUCsUX61FPenwn8ox-87" source="xK6oUCsUX61FPenwn8ox-89" target="xK6oUCsUX61FPenwn8ox-90">
          <mxGeometry width="50" height="50" relative="1" as="geometry">
            <mxPoint x="410" y="60" as="sourcePoint" />
            <mxPoint x="580" y="120" as="targetPoint" />
          </mxGeometry>
        </mxCell>
        <mxCell id="xK6oUCsUX61FPenwn8ox-94" value="/api1" style="edgeLabel;html=1;align=center;verticalAlign=middle;resizable=0;points=[];" vertex="1" connectable="0" parent="xK6oUCsUX61FPenwn8ox-93">
          <mxGeometry x="0.4375" y="1" relative="1" as="geometry">
            <mxPoint as="offset" />
          </mxGeometry>
        </mxCell>
        <mxCell id="xK6oUCsUX61FPenwn8ox-97" value="" style="endArrow=classic;html=1;entryX=0;entryY=1;entryDx=0;entryDy=0;edgeStyle=orthogonalEdgeStyle;fillColor=#f8cecc;strokeColor=#b85450;strokeWidth=2;" edge="1" parent="xK6oUCsUX61FPenwn8ox-87" target="xK6oUCsUX61FPenwn8ox-125">
          <mxGeometry width="50" height="50" relative="1" as="geometry">
            <mxPoint x="180" y="71" as="sourcePoint" />
            <mxPoint x="286" y="90" as="targetPoint" />
            <Array as="points">
              <mxPoint x="196" y="71" />
              <mxPoint x="196" y="306" />
            </Array>
          </mxGeometry>
        </mxCell>
        <mxCell id="xK6oUCsUX61FPenwn8ox-98" value="/api3" style="edgeLabel;html=1;align=center;verticalAlign=middle;resizable=0;points=[];" vertex="1" connectable="0" parent="xK6oUCsUX61FPenwn8ox-97">
          <mxGeometry x="0.2364" y="2" relative="1" as="geometry">
            <mxPoint x="-18" y="-171" as="offset" />
          </mxGeometry>
        </mxCell>
        <mxCell id="xK6oUCsUX61FPenwn8ox-99" value="QUALIF" style="swimlane;html=1;startSize=20;horizontal=0;" vertex="1" parent="xK6oUCsUX61FPenwn8ox-86">
          <mxGeometry x="20" y="110" width="700" height="110" as="geometry" />
        </mxCell>
        <mxCell id="xK6oUCsUX61FPenwn8ox-100" value="API 1" style="rounded=1;whiteSpace=wrap;html=1;" vertex="1" parent="xK6oUCsUX61FPenwn8ox-99">
          <mxGeometry x="538" y="19.5" width="120" height="20" as="geometry" />
        </mxCell>
        <mxCell id="xK6oUCsUX61FPenwn8ox-101" value="" style="endArrow=classic;html=1;exitX=1;exitY=0.25;exitDx=0;exitDy=0;entryX=0;entryY=0.5;entryDx=0;entryDy=0;rounded=1;edgeStyle=orthogonalEdgeStyle;" edge="1" parent="xK6oUCsUX61FPenwn8ox-99" source="xK6oUCsUX61FPenwn8ox-107" target="xK6oUCsUX61FPenwn8ox-100">
          <mxGeometry width="50" height="50" relative="1" as="geometry">
            <mxPoint x="410" y="40" as="sourcePoint" />
            <mxPoint x="540" y="-280" as="targetPoint" />
            <Array as="points">
              <mxPoint x="466" y="41" />
              <mxPoint x="466" y="30" />
            </Array>
          </mxGeometry>
        </mxCell>
        <mxCell id="xK6oUCsUX61FPenwn8ox-102" value="/api1" style="edgeLabel;html=1;align=center;verticalAlign=middle;resizable=0;points=[];" vertex="1" connectable="0" parent="xK6oUCsUX61FPenwn8ox-101">
          <mxGeometry x="-0.388" relative="1" as="geometry">
            <mxPoint as="offset" />
          </mxGeometry>
        </mxCell>
        <mxCell id="xK6oUCsUX61FPenwn8ox-103" value="API 2" style="rounded=1;whiteSpace=wrap;html=1;" vertex="1" parent="xK6oUCsUX61FPenwn8ox-99">
          <mxGeometry x="538" y="55" width="120" height="20" as="geometry" />
        </mxCell>
        <mxCell id="xK6oUCsUX61FPenwn8ox-104" value="" style="endArrow=classic;html=1;exitX=1;exitY=0.5;exitDx=0;exitDy=0;entryX=0;entryY=0.75;entryDx=0;entryDy=0;rounded=1;edgeStyle=orthogonalEdgeStyle;" edge="1" parent="xK6oUCsUX61FPenwn8ox-99" source="xK6oUCsUX61FPenwn8ox-107" target="xK6oUCsUX61FPenwn8ox-103">
          <mxGeometry width="50" height="50" relative="1" as="geometry">
            <mxPoint x="410" y="50" as="sourcePoint" />
            <mxPoint x="538" y="29.5" as="targetPoint" />
            <Array as="points">
              <mxPoint x="466" y="53" />
              <mxPoint x="466" y="70" />
            </Array>
          </mxGeometry>
        </mxCell>
        <mxCell id="xK6oUCsUX61FPenwn8ox-105" value="/api2" style="edgeLabel;html=1;align=center;verticalAlign=middle;resizable=0;points=[];" vertex="1" connectable="0" parent="xK6oUCsUX61FPenwn8ox-104">
          <mxGeometry x="0.3311" y="-3" relative="1" as="geometry">
            <mxPoint x="-41.5" y="-8" as="offset" />
          </mxGeometry>
        </mxCell>
        <mxCell id="xK6oUCsUX61FPenwn8ox-106" value="&lt;div&gt;Consommateur API&lt;br&gt;&lt;/div&gt;" style="rounded=1;whiteSpace=wrap;html=1;" vertex="1" parent="xK6oUCsUX61FPenwn8ox-99">
          <mxGeometry x="60" y="37.5" width="120" height="30" as="geometry" />
        </mxCell>
        <mxCell id="xK6oUCsUX61FPenwn8ox-107" value="APIM" style="rounded=0;whiteSpace=wrap;html=1;" vertex="1" parent="xK6oUCsUX61FPenwn8ox-99">
          <mxGeometry x="286" y="30" width="120" height="45" as="geometry" />
        </mxCell>
        <mxCell id="xK6oUCsUX61FPenwn8ox-108" value="" style="endArrow=classic;html=1;entryX=0;entryY=0.25;entryDx=0;entryDy=0;" edge="1" parent="xK6oUCsUX61FPenwn8ox-99" target="xK6oUCsUX61FPenwn8ox-107">
          <mxGeometry width="50" height="50" relative="1" as="geometry">
            <mxPoint x="180" y="41.5" as="sourcePoint" />
            <mxPoint x="176" y="-157.5" as="targetPoint" />
          </mxGeometry>
        </mxCell>
        <mxCell id="xK6oUCsUX61FPenwn8ox-109" value="/api1" style="edgeLabel;html=1;align=center;verticalAlign=middle;resizable=0;points=[];" vertex="1" connectable="0" parent="xK6oUCsUX61FPenwn8ox-108">
          <mxGeometry x="0.2364" y="2" relative="1" as="geometry">
            <mxPoint as="offset" />
          </mxGeometry>
        </mxCell>
        <mxCell id="xK6oUCsUX61FPenwn8ox-110" value="" style="endArrow=classic;html=1;entryX=0;entryY=0.5;entryDx=0;entryDy=0;exitX=1;exitY=0.5;exitDx=0;exitDy=0;" edge="1" parent="xK6oUCsUX61FPenwn8ox-99" source="xK6oUCsUX61FPenwn8ox-106" target="xK6oUCsUX61FPenwn8ox-107">
          <mxGeometry width="50" height="50" relative="1" as="geometry">
            <mxPoint x="136" y="-172.5" as="sourcePoint" />
            <mxPoint x="246" y="-172.5" as="targetPoint" />
          </mxGeometry>
        </mxCell>
        <mxCell id="xK6oUCsUX61FPenwn8ox-111" value="/api2" style="edgeLabel;html=1;align=center;verticalAlign=middle;resizable=0;points=[];" vertex="1" connectable="0" parent="xK6oUCsUX61FPenwn8ox-110">
          <mxGeometry x="0.2364" y="2" relative="1" as="geometry">
            <mxPoint as="offset" />
          </mxGeometry>
        </mxCell>
        <mxCell id="xK6oUCsUX61FPenwn8ox-112" value="" style="endArrow=classic;html=1;entryX=0;entryY=0.75;entryDx=0;entryDy=0;" edge="1" parent="xK6oUCsUX61FPenwn8ox-99" target="xK6oUCsUX61FPenwn8ox-107">
          <mxGeometry width="50" height="50" relative="1" as="geometry">
            <mxPoint x="180" y="63.5" as="sourcePoint" />
            <mxPoint x="242" y="-137.5" as="targetPoint" />
          </mxGeometry>
        </mxCell>
        <mxCell id="xK6oUCsUX61FPenwn8ox-113" value="/api3" style="edgeLabel;html=1;align=center;verticalAlign=middle;resizable=0;points=[];" vertex="1" connectable="0" parent="xK6oUCsUX61FPenwn8ox-112">
          <mxGeometry x="0.2364" y="2" relative="1" as="geometry">
            <mxPoint as="offset" />
          </mxGeometry>
        </mxCell>
        <mxCell id="xK6oUCsUX61FPenwn8ox-114" value="RECETTE" style="swimlane;html=1;startSize=20;horizontal=0;" vertex="1" parent="xK6oUCsUX61FPenwn8ox-86">
          <mxGeometry x="20" y="220" width="700" height="130" as="geometry" />
        </mxCell>
        <mxCell id="xK6oUCsUX61FPenwn8ox-115" value="API 1" style="rounded=1;whiteSpace=wrap;html=1;" vertex="1" parent="xK6oUCsUX61FPenwn8ox-114">
          <mxGeometry x="540" y="24.5" width="120" height="20" as="geometry" />
        </mxCell>
        <mxCell id="xK6oUCsUX61FPenwn8ox-116" value="API 2" style="rounded=1;whiteSpace=wrap;html=1;" vertex="1" parent="xK6oUCsUX61FPenwn8ox-114">
          <mxGeometry x="540" y="54.5" width="120" height="20" as="geometry" />
        </mxCell>
        <mxCell id="xK6oUCsUX61FPenwn8ox-117" value="API 3" style="rounded=1;whiteSpace=wrap;html=1;" vertex="1" parent="xK6oUCsUX61FPenwn8ox-114">
          <mxGeometry x="540" y="85.5" width="120" height="20" as="geometry" />
        </mxCell>
        <mxCell id="xK6oUCsUX61FPenwn8ox-118" value="" style="endArrow=classic;html=1;exitX=1;exitY=0.25;exitDx=0;exitDy=0;entryX=0;entryY=0.5;entryDx=0;entryDy=0;rounded=1;edgeStyle=orthogonalEdgeStyle;" edge="1" parent="xK6oUCsUX61FPenwn8ox-114" source="xK6oUCsUX61FPenwn8ox-125" target="xK6oUCsUX61FPenwn8ox-115">
          <mxGeometry width="50" height="50" relative="1" as="geometry">
            <mxPoint x="410" y="70" as="sourcePoint" />
            <mxPoint x="548" y="116" as="targetPoint" />
            <Array as="points">
              <mxPoint x="466" y="52" />
              <mxPoint x="466" y="35" />
            </Array>
          </mxGeometry>
        </mxCell>
        <mxCell id="xK6oUCsUX61FPenwn8ox-119" value="/api1" style="edgeLabel;html=1;align=center;verticalAlign=middle;resizable=0;points=[];" vertex="1" connectable="0" parent="xK6oUCsUX61FPenwn8ox-118">
          <mxGeometry x="-0.2015" relative="1" as="geometry">
            <mxPoint x="-28" y="2.7" as="offset" />
          </mxGeometry>
        </mxCell>
        <mxCell id="xK6oUCsUX61FPenwn8ox-120" value="" style="endArrow=classic;html=1;exitX=1;exitY=0.5;exitDx=0;exitDy=0;entryX=0;entryY=0.5;entryDx=0;entryDy=0;rounded=1;edgeStyle=orthogonalEdgeStyle;" edge="1" parent="xK6oUCsUX61FPenwn8ox-114" source="xK6oUCsUX61FPenwn8ox-125" target="xK6oUCsUX61FPenwn8ox-116">
          <mxGeometry width="50" height="50" relative="1" as="geometry">
            <mxPoint x="410" y="75.5" as="sourcePoint" />
            <mxPoint x="540" y="34.5" as="targetPoint" />
            <Array as="points">
              <mxPoint x="402" y="65" />
              <mxPoint x="496" y="65" />
            </Array>
          </mxGeometry>
        </mxCell>
        <mxCell id="xK6oUCsUX61FPenwn8ox-121" value="/api2" style="edgeLabel;html=1;align=center;verticalAlign=middle;resizable=0;points=[];" vertex="1" connectable="0" parent="xK6oUCsUX61FPenwn8ox-120">
          <mxGeometry x="0.5" relative="1" as="geometry">
            <mxPoint x="-39" y="0.1" as="offset" />
          </mxGeometry>
        </mxCell>
        <mxCell id="xK6oUCsUX61FPenwn8ox-122" value="" style="endArrow=classic;html=1;exitX=1;exitY=0.75;exitDx=0;exitDy=0;entryX=0;entryY=0.75;entryDx=0;entryDy=0;rounded=1;edgeStyle=orthogonalEdgeStyle;" edge="1" parent="xK6oUCsUX61FPenwn8ox-114" source="xK6oUCsUX61FPenwn8ox-125" target="xK6oUCsUX61FPenwn8ox-117">
          <mxGeometry width="50" height="50" relative="1" as="geometry">
            <mxPoint x="410" y="80.5" as="sourcePoint" />
            <mxPoint x="546" y="90" as="targetPoint" />
            <Array as="points">
              <mxPoint x="446" y="74" />
              <mxPoint x="446" y="101" />
            </Array>
          </mxGeometry>
        </mxCell>
        <mxCell id="xK6oUCsUX61FPenwn8ox-123" value="/api3" style="edgeLabel;html=1;align=center;verticalAlign=middle;resizable=0;points=[];" vertex="1" connectable="0" parent="xK6oUCsUX61FPenwn8ox-122">
          <mxGeometry x="-0.0743" y="-2" relative="1" as="geometry">
            <mxPoint as="offset" />
          </mxGeometry>
        </mxCell>
        <mxCell id="xK6oUCsUX61FPenwn8ox-124" value="&lt;div&gt;Consommateur API&lt;br&gt;&lt;/div&gt;" style="rounded=1;whiteSpace=wrap;html=1;" vertex="1" parent="xK6oUCsUX61FPenwn8ox-114">
          <mxGeometry x="56" y="48" width="120" height="30" as="geometry" />
        </mxCell>
        <mxCell id="xK6oUCsUX61FPenwn8ox-125" value="APIM" style="rounded=0;whiteSpace=wrap;html=1;" vertex="1" parent="xK6oUCsUX61FPenwn8ox-114">
          <mxGeometry x="282" y="40.5" width="120" height="45" as="geometry" />
        </mxCell>
        <mxCell id="xK6oUCsUX61FPenwn8ox-126" value="" style="endArrow=classic;html=1;entryX=0;entryY=0.25;entryDx=0;entryDy=0;" edge="1" parent="xK6oUCsUX61FPenwn8ox-114" target="xK6oUCsUX61FPenwn8ox-125">
          <mxGeometry width="50" height="50" relative="1" as="geometry">
            <mxPoint x="176" y="52" as="sourcePoint" />
            <mxPoint x="172" y="-147" as="targetPoint" />
          </mxGeometry>
        </mxCell>
        <mxCell id="xK6oUCsUX61FPenwn8ox-127" value="/api1" style="edgeLabel;html=1;align=center;verticalAlign=middle;resizable=0;points=[];" vertex="1" connectable="0" parent="xK6oUCsUX61FPenwn8ox-126">
          <mxGeometry x="0.2364" y="2" relative="1" as="geometry">
            <mxPoint as="offset" />
          </mxGeometry>
        </mxCell>
        <mxCell id="xK6oUCsUX61FPenwn8ox-128" value="" style="endArrow=classic;html=1;entryX=0;entryY=0.5;entryDx=0;entryDy=0;exitX=1;exitY=0.5;exitDx=0;exitDy=0;" edge="1" parent="xK6oUCsUX61FPenwn8ox-114" source="xK6oUCsUX61FPenwn8ox-124" target="xK6oUCsUX61FPenwn8ox-125">
          <mxGeometry width="50" height="50" relative="1" as="geometry">
            <mxPoint x="132" y="-162" as="sourcePoint" />
            <mxPoint x="242" y="-162" as="targetPoint" />
          </mxGeometry>
        </mxCell>
        <mxCell id="xK6oUCsUX61FPenwn8ox-129" value="/api2" style="edgeLabel;html=1;align=center;verticalAlign=middle;resizable=0;points=[];" vertex="1" connectable="0" parent="xK6oUCsUX61FPenwn8ox-128">
          <mxGeometry x="0.2364" y="2" relative="1" as="geometry">
            <mxPoint as="offset" />
          </mxGeometry>
        </mxCell>
        <mxCell id="xK6oUCsUX61FPenwn8ox-130" value="" style="endArrow=classic;html=1;entryX=0;entryY=0.75;entryDx=0;entryDy=0;" edge="1" parent="xK6oUCsUX61FPenwn8ox-114" target="xK6oUCsUX61FPenwn8ox-125">
          <mxGeometry width="50" height="50" relative="1" as="geometry">
            <mxPoint x="176" y="74" as="sourcePoint" />
            <mxPoint x="238" y="-127" as="targetPoint" />
          </mxGeometry>
        </mxCell>
        <mxCell id="xK6oUCsUX61FPenwn8ox-131" value="/api3" style="edgeLabel;html=1;align=center;verticalAlign=middle;resizable=0;points=[];" vertex="1" connectable="0" parent="xK6oUCsUX61FPenwn8ox-130">
          <mxGeometry x="0.2364" y="2" relative="1" as="geometry">
            <mxPoint as="offset" />
          </mxGeometry>
        </mxCell>
        <mxCell id="xK6oUCsUX61FPenwn8ox-95" value="" style="endArrow=classic;html=1;entryX=0;entryY=0;entryDx=0;entryDy=0;exitX=1;exitY=0.5;exitDx=0;exitDy=0;edgeStyle=orthogonalEdgeStyle;strokeWidth=2;fillColor=#f8cecc;strokeColor=#b85450;" edge="1" parent="xK6oUCsUX61FPenwn8ox-86" source="xK6oUCsUX61FPenwn8ox-88" target="xK6oUCsUX61FPenwn8ox-107">
          <mxGeometry width="50" height="50" relative="1" as="geometry">
            <mxPoint x="200" y="55" as="sourcePoint" />
            <mxPoint x="310" y="55" as="targetPoint" />
            <Array as="points">
              <mxPoint x="226" y="60" />
              <mxPoint x="226" y="140" />
            </Array>
          </mxGeometry>
        </mxCell>
        <mxCell id="xK6oUCsUX61FPenwn8ox-96" value="/api2" style="edgeLabel;html=1;align=center;verticalAlign=middle;resizable=0;points=[];" vertex="1" connectable="0" parent="xK6oUCsUX61FPenwn8ox-95">
          <mxGeometry x="0.2364" y="2" relative="1" as="geometry">
            <mxPoint x="7.5" y="-63" as="offset" />
          </mxGeometry>
        </mxCell>
        <mxCell id="xK6oUCsUX61FPenwn8ox-136" value="Text" style="text;html=1;strokeColor=none;fillColor=none;align=center;verticalAlign=middle;whiteSpace=wrap;rounded=0;" vertex="1" parent="1">
          <mxGeometry x="396" y="410" width="40" height="20" as="geometry" />
        </mxCell>
      </root>
    </mxGraphModel>
  </diagram>
</mxfile>
